<svg xmlns="http://www.w3.org/2000/svg" width="800" height="360" viewBox="0 0 800 360">
  <rect width="800" height="360" fill="#0a1218"/>
  <text x="400" y="100" font-family="monospace" font-size="48" fill="#0066ff" text-anchor="middle" opacity="0.12" font-weight="bold">FPGA</text>
  <!-- LUT grid -->
  <g opacity="0.4">
    <rect x="180" y="150" width="35" height="35" rx="2" fill="none" stroke="#0066ff" stroke-width="1"/>
    <rect x="225" y="150" width="35" height="35" rx="2" fill="none" stroke="#0066ff" stroke-width="1"/>
    <rect x="270" y="150" width="35" height="35" rx="2" fill="#0066ff" stroke="#0066ff" stroke-width="1" opacity="0.3"/>
    <rect x="180" y="195" width="35" height="35" rx="2" fill="#0066ff" stroke="#0066ff" stroke-width="1" opacity="0.3"/>
    <rect x="225" y="195" width="35" height="35" rx="2" fill="none" stroke="#0066ff" stroke-width="1"/>
    <rect x="270" y="195" width="35" height="35" rx="2" fill="none" stroke="#0066ff" stroke-width="1"/>
    <rect x="315" y="150" width="35" height="35" rx="2" fill="none" stroke="#0066ff" stroke-width="1"/>
    <rect x="360" y="150" width="35" height="35" rx="2" fill="#0066ff" stroke="#0066ff" stroke-width="1" opacity="0.3"/>
    <rect x="315" y="195" width="35" height="35" rx="2" fill="#0066ff" stroke="#0066ff" stroke-width="1" opacity="0.3"/>
    <rect x="360" y="195" width="35" height="35" rx="2" fill="none" stroke="#0066ff" stroke-width="1"/>
  </g>
  <text x="400" y="130" font-family="Georgia,serif" font-size="26" fill="#e8f0fe" text-anchor="middle" font-weight="bold">FPGA Development Flow</text>
  <text x="400" y="285" font-family="monospace" font-size="11" fill="#7a8fa6" text-anchor="middle">HDL → Synthesis → P&amp;R → Bitstream</text>
  <text x="400" y="345" font-family="monospace" font-size="10" fill="#3a5a70" text-anchor="middle">December 2024 · FPGA</text>
</svg>
